<?xml version="1.0" encoding="UTF-8"?>
<svg version="1.1" xmlns="http://www.w3.org/2000/svg" width="256" height="256">
<path d="M0 0 C84.48 0 168.96 0 256 0 C256 84.48 256 168.96 256 256 C171.52 256 87.04 256 0 256 C0 171.52 0 87.04 0 0 Z " fill="#5683EF" transform="translate(0,0)"/>
<path d="M0 0 C5.58262871 2.72273169 9.71950594 6.09755168 13.1875 11.25 C15.87292611 23.64427438 15.87292611 23.64427438 12.86909485 29.02624512 C9.32449342 34.3668697 5.48596041 38.93291415 0.9140625 43.4140625 C0.25344818 44.07280365 -0.40716614 44.7315448 -1.08779907 45.4102478 C-2.47428444 46.79006452 -3.86433582 48.16630666 -5.2578125 49.5390625 C-7.36979891 51.61987568 -9.47091596 53.71117987 -11.5703125 55.8046875 C-12.92906768 57.15427015 -14.288423 58.50324891 -15.6484375 59.8515625 C-16.57539932 60.77214951 -16.57539932 60.77214951 -17.52108765 61.71133423 C-20.53329484 64.67536226 -23.5890402 67.53507511 -26.79931641 70.28393555 C-31.47668521 74.33445502 -35.78925943 78.72190253 -40.12033081 83.1368618 C-41.59815176 84.64177407 -43.08068809 86.14189211 -44.56469727 87.64070129 C-48.77805267 91.89637402 -52.98841904 96.15487869 -57.18261719 100.42944336 C-59.76369299 103.05928514 -62.35464209 105.67904789 -64.95211792 108.29268837 C-65.93171203 109.28210776 -66.90765916 110.27515312 -67.87966919 111.27202415 C-73.87658678 117.41902579 -79.19720559 122.86907905 -87.90625 124.56640625 C-95.43989617 124.5550604 -100.17727343 122.81297472 -105.53125 117.47265625 C-110.31828521 112.00374683 -111.48623501 107.94912181 -111.296875 100.80078125 C-110.16484454 90.12096756 -100.92620838 83.37557849 -93.26893616 76.77970886 C-89.30519295 73.31501205 -85.5648035 69.68144002 -81.86889648 65.93481445 C-81.20597595 65.26722107 -80.54305542 64.59962769 -79.86004639 63.9118042 C-78.43548177 62.47681984 -77.0120279 61.0407321 -75.5895977 59.60363197 C-73.33445659 57.32628331 -71.07521202 55.05308099 -68.81471252 52.78105164 C-62.39307324 46.32598389 -55.97570348 39.86671835 -49.56860352 33.3972168 C-45.63660281 29.42750882 -41.69727302 25.46520103 -37.75319099 21.50749779 C-36.25734681 20.00362179 -34.76427983 18.49697793 -33.27410698 16.98748207 C-31.19019952 14.87700773 -29.09708567 12.77608095 -27.00170898 10.67700195 C-26.39424332 10.05717941 -25.78677765 9.43735687 -25.16090393 8.79875183 C-17.75219904 1.4243459 -10.67279573 -2.04293654 0 0 Z " fill="#FDFAFB" transform="translate(199,66)"/>
<path d="M0 0 C5.15890303 3.94019237 9.60178948 7.77153326 10.75390625 14.3984375 C11.04525888 21.86082423 9.45992811 27.552226 4.70755005 33.39700317 C2.89750199 35.32835618 1.0375068 37.18903842 -0.859375 39.03515625 C-1.88783539 40.05868446 -1.88783539 40.05868446 -2.93707275 41.10289001 C-5.11548069 43.26565922 -7.30765191 45.41387326 -9.5 47.5625 C-10.9565963 49.00759003 -12.41233352 50.45354652 -13.8671875 51.90039062 C-15.2804832 53.30025375 -16.69452193 54.69936719 -18.109375 56.09765625 C-18.75549744 56.73639175 -19.40161987 57.37512726 -20.06732178 58.03321838 C-23.15173973 61.05451063 -26.27466774 63.97927417 -29.5559082 66.78613281 C-34.29236937 70.88760998 -38.6461276 75.34504265 -43.02496147 79.82205772 C-45.0534683 81.89334931 -47.09194456 83.95471746 -49.12973881 86.01686573 C-52.90473937 89.83724106 -56.67558421 93.66151372 -60.42993164 97.50219727 C-63.06064815 100.19263658 -65.70370191 102.87041171 -68.35505867 105.54050636 C-69.35427155 106.55137029 -70.34896275 107.56672681 -71.33874321 108.58682823 C-77.81047567 115.2519015 -83.46983139 120.22743952 -92.71875 122.1015625 C-99.905647 122.16810784 -104.4722499 120.41814388 -109.75 115.5 C-113.95949887 111.15248477 -115.11557977 107.06701208 -115.4375 101.0625 C-115.02788561 91.4753091 -109.66751489 86.04303398 -103.0703125 79.6171875 C-101.09131547 77.811436 -99.08135174 76.05932717 -97.05265808 74.3102417 C-93.07016986 70.8277279 -89.30617512 67.17913386 -85.5871582 63.41894531 C-84.58795853 62.4151458 -84.58795853 62.4151458 -83.568573 61.3910675 C-82.13743415 59.9528312 -80.70742836 58.51346667 -79.27846718 57.07306671 C-77.01509843 54.79216578 -74.74808189 52.51494845 -72.48002625 50.2387085 C-66.03730642 43.77164973 -59.60034725 37.29887918 -53.16772461 30.82177734 C-49.22054402 26.84781283 -45.26850438 22.87873459 -41.31343651 18.91262054 C-39.81125551 17.40423851 -38.3109738 15.89396248 -36.81264687 14.38175201 C-34.72119667 12.2710788 -32.62365187 10.16664435 -30.5246582 8.06347656 C-29.91000198 7.44005875 -29.29534576 6.81664093 -28.6620636 6.17433167 C-20.8224576 -1.64752061 -10.39159313 -6.48815206 0 0 Z " fill="#FDFAFB" transform="translate(157.75,23.5)"/>
<path d="M0 0 C5.61591905 3.5180716 9.12929845 7.52852035 11.23828125 13.85546875 C12.0621324 20.37566217 11.28563016 25.27177322 7.8046875 30.875 C4.69072223 34.81210821 1.0217646 37.2609743 -3.76171875 38.85546875 C-11.44023837 39.69563918 -17.65118319 39.65037885 -23.8828125 34.75 C-28.41619987 30.17891294 -30.9818401 25.39014705 -31.44921875 18.91796875 C-31.05749702 12.12106739 -27.73435297 6.91755724 -23.07421875 2.1171875 C-16.66286436 -2.78805131 -7.30124669 -3.02583491 0 0 Z " fill="#FBF9FB" transform="translate(163.76171875,195.14453125)"/>
<path d="M0 0 C1.0828125 1.11375 1.0828125 1.11375 2.1875 2.25 C4.68592573 4.69290515 7.23643202 6.8681047 10 9 C6.7 9 3.4 9 0 9 C0 6.03 0 3.06 0 0 Z " fill="#000000" transform="translate(0,247)"/>
<path d="M0 0 C0.33 0 0.66 0 1 0 C1 2.97 1 5.94 1 9 C-1.97 9 -4.94 9 -8 9 C-6.8553125 7.88625 -6.8553125 7.88625 -5.6875 6.75 C-3.55897715 4.57197662 -1.80222694 2.43300637 0 0 Z " fill="#000000" transform="translate(255,247)"/>
<path d="M0 0 C2.97 0 5.94 0 9 0 C9 2.97 9 5.94 9 9 C6 6 3 3 0 0 Z " fill="#000000" transform="translate(247,0)"/>
<path d="M0 0 C2.97 0 5.94 0 9 0 C6 3 3 6 0 9 C0 6.03 0 3.06 0 0 Z " fill="#000000" transform="translate(0,0)"/>
</svg>
