<svg width="319" height="78" viewBox="0 0 319 78" fill="none" xmlns="http://www.w3.org/2000/svg">
<path d="M2.20219 42.5775C-0.734065 39.6768 -0.734065 34.9738 2.20219 32.073L32.4657 2.17556C35.402 -0.725186 40.1626 -0.725185 43.0989 2.17556C46.0351 5.0763 46.0351 9.77933 43.0989 12.6801L12.8353 42.5775C9.89907 45.4783 5.13845 45.4783 2.20219 42.5775Z" fill="url(#paint0_linear_1177_906)"/>
<path d="M18.5609 58.7383C15.6246 55.8376 15.6246 51.1346 18.5609 48.2338L48.8244 18.3363C51.7607 15.4356 56.5213 15.4356 59.4575 18.3363C62.3938 21.2371 62.3938 25.9401 59.4575 28.8409L29.194 58.7383C26.2577 61.6391 21.4971 61.6391 18.5609 58.7383Z" fill="url(#paint1_linear_1177_906)"/>
<path d="M34.9195 74.8991C31.9833 71.9984 31.9833 67.2954 34.9195 64.3946C37.8558 61.4939 42.6164 61.4939 45.5527 64.3946C48.4889 67.2954 48.4889 71.9984 45.5527 74.8991C42.6164 77.7999 37.8558 77.7999 34.9195 74.8991Z" fill="url(#paint2_linear_1177_906)"/>
<path d="M298.293 77.0742C293.501 77.0742 289.188 76.2863 285.354 74.7106C281.589 73.0663 278.508 70.737 276.112 67.7225L284.327 60.6316C286.381 62.961 288.674 64.6395 291.207 65.6671C293.74 66.6948 296.41 67.2086 299.217 67.2086C300.381 67.2086 301.407 67.0716 302.297 66.7976C303.256 66.5235 304.077 66.1125 304.762 65.5644C305.446 65.0163 305.96 64.3997 306.302 63.7146C306.713 62.961 306.918 62.1388 306.918 61.2482C306.918 59.6039 306.302 58.3022 305.07 57.3431C304.385 56.8635 303.29 56.3497 301.784 55.8016C300.346 55.2535 298.464 54.7054 296.136 54.1573C292.439 53.1982 289.359 52.102 286.894 50.8688C284.43 49.5671 282.513 48.1284 281.144 46.5526C279.98 45.2509 279.09 43.7779 278.474 42.1337C277.926 40.4894 277.653 38.7081 277.653 36.7898C277.653 34.392 278.166 32.2339 279.193 30.3156C280.288 28.3287 281.76 26.616 283.608 25.1773C285.457 23.7385 287.613 22.6424 290.078 21.8887C292.542 21.1351 295.109 20.7583 297.779 20.7583C300.517 20.7583 303.153 21.1009 305.686 21.786C308.287 22.4711 310.683 23.4645 312.874 24.7662C315.133 25.9994 317.05 27.5066 318.625 29.2879L311.642 36.9954C310.341 35.7622 308.904 34.666 307.329 33.7068C305.823 32.7477 304.283 31.9941 302.708 31.446C301.134 30.8294 299.662 30.5211 298.293 30.5211C296.992 30.5211 295.828 30.6581 294.801 30.9322C293.774 31.1377 292.919 31.4802 292.234 31.9598C291.55 32.4394 291.002 33.056 290.591 33.8096C290.249 34.4947 290.078 35.3169 290.078 36.276C290.146 37.0981 290.351 37.886 290.694 38.6396C291.105 39.3247 291.652 39.9071 292.337 40.3867C293.09 40.8662 294.219 41.4143 295.725 42.0309C297.231 42.6475 299.183 43.2299 301.579 43.7779C304.933 44.6686 307.74 45.662 309.999 46.7582C312.258 47.8543 314.038 49.1218 315.339 50.5605C316.639 51.7937 317.563 53.2324 318.111 54.8767C318.659 56.521 318.933 58.3365 318.933 60.3233C318.933 63.5433 318.008 66.4208 316.16 68.9557C314.38 71.4906 311.916 73.4774 308.767 74.9161C305.686 76.3548 302.195 77.0742 298.293 77.0742Z" fill="white"/>
<path d="M243.864 77.0747C241.468 77.0747 239.106 76.7321 236.779 76.047C234.52 75.2934 232.466 74.3 230.618 73.0668C228.769 71.8336 227.229 70.4634 225.997 68.9561C224.764 67.3804 223.943 65.8046 223.532 64.2289L226.51 62.8929L226.202 75.8415H213.982V0H226.613V34.4267L224.354 33.399C224.696 31.7548 225.449 30.2133 226.613 28.7745C227.845 27.2673 229.351 25.9313 231.131 24.7667C232.911 23.5335 234.862 22.5743 236.984 21.8892C239.106 21.1356 241.263 20.7588 243.453 20.7588C248.314 20.7588 252.593 21.9577 256.289 24.3556C260.054 26.7535 262.998 30.0763 265.12 34.3239C267.311 38.5716 268.406 43.4016 268.406 48.814C268.406 54.2948 267.345 59.1591 265.223 63.4068C263.101 67.6544 260.157 71.0115 256.392 73.4779C252.695 75.8757 248.519 77.0747 243.864 77.0747ZM241.194 65.9759C244.07 65.9759 246.637 65.2566 248.896 63.8178C251.155 62.3106 252.935 60.2895 254.236 57.7546C255.536 55.1512 256.187 52.171 256.187 48.814C256.187 45.5254 255.536 42.6137 254.236 40.0788C253.003 37.5439 251.258 35.5571 248.998 34.1184C246.739 32.6797 244.138 31.9603 241.194 31.9603C238.251 31.9603 235.649 32.6797 233.39 34.1184C231.131 35.5571 229.351 37.5439 228.05 40.0788C226.75 42.6137 226.099 45.5254 226.099 48.814C226.099 52.171 226.75 55.1512 228.05 57.7546C229.351 60.2895 231.131 62.3106 233.39 63.8178C235.649 65.2566 238.251 65.9759 241.194 65.9759Z" fill="white"/>
<path d="M175.466 77.0742C171.017 77.0742 166.978 75.841 163.349 73.3746C159.721 70.9082 156.812 67.5512 154.621 63.3035C152.43 59.0559 151.335 54.2258 151.335 48.8135C151.335 43.4011 152.43 38.5711 154.621 34.3234C156.812 30.0758 159.789 26.753 163.555 24.3551C167.32 21.9572 171.564 20.7583 176.288 20.7583C179.026 20.7583 181.525 21.1694 183.784 21.9915C186.043 22.7451 188.028 23.8413 189.74 25.28C191.451 26.7187 192.855 28.363 193.95 30.2128C195.114 32.0626 195.901 34.0494 196.312 36.1732L193.539 35.4539V21.8887H206.272V76.0465H193.436V63.098L196.414 62.5842C195.935 64.434 195.045 66.2495 193.744 68.0308C192.512 69.7435 190.938 71.285 189.021 72.6553C187.173 73.957 185.085 75.0189 182.757 75.841C180.498 76.6631 178.068 77.0742 175.466 77.0742ZM178.958 65.8727C181.901 65.8727 184.503 65.1533 186.762 63.7146C189.021 62.2759 190.767 60.289 191.999 57.7541C193.3 55.1507 193.95 52.1705 193.95 48.8135C193.95 45.525 193.3 42.6133 191.999 40.0784C190.767 37.5435 189.021 35.5566 186.762 34.1179C184.503 32.6792 181.901 31.9598 178.958 31.9598C176.014 31.9598 173.413 32.6792 171.153 34.1179C168.963 35.5566 167.251 37.5435 166.019 40.0784C164.787 42.6133 164.171 45.525 164.171 48.8135C164.171 52.1705 164.787 55.1507 166.019 57.7541C167.251 60.289 168.963 62.2759 171.153 63.7146C173.413 65.1533 176.014 65.8727 178.958 65.8727Z" fill="white"/>
<path d="M130.896 76.047V0H143.63V76.047H130.896Z" fill="white"/>
<path d="M94.7445 76.047V34.1184H86.3242V23.0196H94.7445V17.0592C94.7445 13.7707 95.4633 10.859 96.9009 8.32406C98.3385 5.72065 100.324 3.69958 102.857 2.26085C105.39 0.753617 108.333 0 111.688 0C114.015 0 116.172 0.411064 118.157 1.23319C120.142 1.98681 121.82 3.04873 123.189 4.41895L119.287 13.9762C118.397 13.2226 117.438 12.6402 116.411 12.2292C115.453 11.8181 114.529 11.6126 113.639 11.6126C112.27 11.6126 111.106 11.8524 110.147 12.3319C109.258 12.743 108.573 13.3939 108.094 14.2845C107.683 15.1751 107.478 16.2371 107.478 17.4703V23.0196H119.697V34.1184H107.478V76.047H101.111H97.6197H94.7445Z" fill="white"/>
<defs>
<linearGradient id="paint0_linear_1177_906" x1="18.3326" y1="58.5353" x2="58.8969" y2="17.4744" gradientUnits="userSpaceOnUse">
<stop stop-color="#4678EE"/>
<stop offset="1" stop-color="#6B93F1"/>
</linearGradient>
<linearGradient id="paint1_linear_1177_906" x1="18.3326" y1="58.5353" x2="58.8969" y2="17.4744" gradientUnits="userSpaceOnUse">
<stop stop-color="#4678EE"/>
<stop offset="1" stop-color="#6B93F1"/>
</linearGradient>
<linearGradient id="paint2_linear_1177_906" x1="18.3326" y1="58.5353" x2="58.8969" y2="17.4744" gradientUnits="userSpaceOnUse">
<stop stop-color="#4678EE"/>
<stop offset="1" stop-color="#6B93F1"/>
</linearGradient>
</defs>
</svg>
