<svg width="166" height="40" viewBox="0 0 166 40" fill="none" xmlns="http://www.w3.org/2000/svg">
<path d="M1.17707 22.0967C-0.346782 20.5913 -0.346782 18.1505 1.17707 16.6451L16.8831 1.12906C18.407 -0.376354 20.8776 -0.376354 22.4015 1.12906C23.9253 2.63448 23.9253 5.07523 22.4015 6.58065L6.69541 22.0967C5.17156 23.6021 2.70091 23.6021 1.17707 22.0967Z" fill="url(#paint0_linear_1177_899)"/>
<path d="M9.66682 30.4838C8.14297 28.9784 8.14297 26.5376 9.66682 25.0322L25.3729 9.51612C26.8967 8.01071 29.3674 8.01071 30.8912 9.51612C32.4151 11.0215 32.4151 13.4623 30.8912 14.9677L15.1852 30.4838C13.6613 31.9892 11.1907 31.9892 9.66682 30.4838Z" fill="url(#paint1_linear_1177_899)"/>
<path d="M18.1566 38.8708C16.6327 37.3654 16.6327 34.9247 18.1566 33.4192C19.6804 31.9138 22.1511 31.9138 23.6749 33.4192C25.1988 34.9247 25.1988 37.3654 23.6749 38.8708C22.1511 40.3762 19.6804 40.3762 18.1566 38.8708Z" fill="url(#paint2_linear_1177_899)"/>
<path d="M154.841 39.9999C152.354 39.9999 150.116 39.591 148.126 38.7732C146.172 37.9199 144.574 36.711 143.33 35.1466L147.593 31.4666C148.659 32.6755 149.849 33.5466 151.164 34.0799C152.478 34.6133 153.864 34.8799 155.321 34.8799C155.925 34.8799 156.458 34.8088 156.919 34.6666C157.417 34.5244 157.843 34.311 158.198 34.0266C158.554 33.7421 158.82 33.4221 158.998 33.0666C159.211 32.6755 159.318 32.2488 159.318 31.7866C159.318 30.9333 158.998 30.2577 158.358 29.7599C158.003 29.511 157.435 29.2444 156.653 28.9599C155.907 28.6755 154.93 28.391 153.722 28.1066C151.803 27.6088 150.205 27.0399 148.926 26.3999C147.647 25.7244 146.652 24.9777 145.941 24.1599C145.337 23.4844 144.876 22.72 144.556 21.8666C144.272 21.0133 144.129 20.0888 144.129 19.0933C144.129 17.8489 144.396 16.7289 144.929 15.7333C145.497 14.7022 146.261 13.8133 147.22 13.0666C148.18 12.32 149.299 11.7511 150.578 11.36C151.857 10.9689 153.189 10.7733 154.575 10.7733C155.996 10.7733 157.364 10.9511 158.678 11.3067C160.028 11.6622 161.272 12.1778 162.409 12.8533C163.581 13.4933 164.576 14.2755 165.393 15.2L161.769 19.2C161.094 18.56 160.348 17.9911 159.531 17.4933C158.749 16.9955 157.95 16.6044 157.133 16.32C156.316 16 155.552 15.84 154.841 15.84C154.166 15.84 153.562 15.9111 153.029 16.0533C152.496 16.16 152.052 16.3377 151.697 16.5866C151.342 16.8355 151.057 17.1555 150.844 17.5466C150.667 17.9022 150.578 18.3289 150.578 18.8266C150.613 19.2533 150.72 19.6622 150.898 20.0533C151.111 20.4088 151.395 20.7111 151.75 20.96C152.141 21.2088 152.727 21.4933 153.509 21.8133C154.29 22.1333 155.303 22.4355 156.546 22.72C158.287 23.1822 159.744 23.6977 160.916 24.2666C162.089 24.8355 163.013 25.4933 163.688 26.2399C164.363 26.8799 164.842 27.6266 165.126 28.4799C165.411 29.3333 165.553 30.2755 165.553 31.3066C165.553 32.9777 165.073 34.471 164.114 35.7866C163.19 37.1021 161.911 38.1332 160.277 38.8799C158.678 39.6266 156.866 39.9999 154.841 39.9999Z" fill="black"/>
<path d="M126.594 39.9999C125.35 39.9999 124.125 39.8221 122.917 39.4666C121.744 39.0754 120.678 38.5599 119.719 37.9199C118.76 37.2799 117.961 36.5688 117.321 35.7866C116.682 34.9688 116.255 34.151 116.042 33.3332L117.588 32.6399L117.428 39.3599H111.086V0H117.641V17.8666L116.468 17.3333C116.646 16.48 117.037 15.68 117.641 14.9333C118.28 14.1511 119.062 13.4577 119.986 12.8533C120.909 12.2133 121.922 11.7155 123.023 11.36C124.125 10.9689 125.244 10.7733 126.381 10.7733C128.903 10.7733 131.124 11.3955 133.042 12.64C134.996 13.8844 136.524 15.6088 137.625 17.8133C138.762 20.0177 139.331 22.5244 139.331 25.3333C139.331 28.1777 138.78 30.7021 137.679 32.9066C136.577 35.111 135.049 36.8532 133.095 38.1332C131.177 39.3777 129.01 39.9999 126.594 39.9999ZM125.208 34.2399C126.7 34.2399 128.033 33.8666 129.205 33.1199C130.378 32.3377 131.301 31.2888 131.976 29.9732C132.651 28.6221 132.989 27.0755 132.989 25.3333C132.989 23.6266 132.651 22.1155 131.976 20.7999C131.337 19.4844 130.431 18.4533 129.258 17.7066C128.086 16.96 126.736 16.5866 125.208 16.5866C123.681 16.5866 122.331 16.96 121.158 17.7066C119.986 18.4533 119.062 19.4844 118.387 20.7999C117.712 22.1155 117.374 23.6266 117.374 25.3333C117.374 27.0755 117.712 28.6221 118.387 29.9732C119.062 31.2888 119.986 32.3377 121.158 33.1199C122.331 33.8666 123.681 34.2399 125.208 34.2399Z" fill="black"/>
<path d="M91.0968 39.9999C88.7875 39.9999 86.6914 39.3599 84.8084 38.0799C82.9254 36.7999 81.4155 35.0577 80.2786 32.8533C79.1417 30.6488 78.5732 28.1422 78.5732 25.3333C78.5732 22.5244 79.1417 20.0177 80.2786 17.8133C81.4155 15.6089 82.9609 13.8844 84.915 12.64C86.869 11.3955 89.0717 10.7733 91.5231 10.7733C92.9443 10.7733 94.241 10.9866 95.4134 11.4133C96.5859 11.8044 97.6162 12.3733 98.5044 13.12C99.3926 13.8666 100.121 14.72 100.689 15.68C101.293 16.64 101.702 17.6711 101.915 18.7733L100.476 18.4V11.36H107.084V39.4666H100.423V32.7466L101.968 32.4799C101.72 33.4399 101.258 34.3821 100.583 35.3066C99.9433 36.1955 99.1261 36.9955 98.1313 37.7066C97.1721 38.3821 96.0885 38.9332 94.8805 39.3599C93.7081 39.7866 92.4469 39.9999 91.0968 39.9999ZM92.9087 34.1866C94.4364 34.1866 95.7865 33.8133 96.9589 33.0666C98.1313 32.3199 99.0373 31.2888 99.6768 29.9733C100.352 28.6222 100.689 27.0755 100.689 25.3333C100.689 23.6266 100.352 22.1155 99.6768 20.8C99.0373 19.4844 98.1313 18.4533 96.9589 17.7066C95.7865 16.96 94.4364 16.5866 92.9087 16.5866C91.381 16.5866 90.031 16.96 88.8586 17.7066C87.7217 18.4533 86.8335 19.4844 86.194 20.8C85.5545 22.1155 85.2347 23.6266 85.2347 25.3333C85.2347 27.0755 85.5545 28.6222 86.194 29.9733C86.8335 31.2888 87.7217 32.3199 88.8586 33.0666C90.031 33.8133 91.381 34.1866 92.9087 34.1866Z" fill="black"/>
<path d="M67.9648 39.4666V0H74.573V39.4666H67.9648Z" fill="black"/>
<path d="M49.2039 39.4666V17.7066H44.834V11.9466H49.2039V8.85331C49.2039 7.14665 49.577 5.63554 50.323 4.31999C51.0691 2.96888 52.0994 1.91999 53.414 1.17333C54.7285 0.391109 56.2562 0 57.9971 0C59.205 0 60.3241 0.213332 61.3544 0.639996C62.3847 1.03111 63.2552 1.58222 63.9657 2.29333L61.9407 7.25331C61.4788 6.8622 60.9814 6.55998 60.4485 6.34665C59.9511 6.13332 59.4715 6.02665 59.0096 6.02665C58.299 6.02665 57.6951 6.15109 57.1977 6.39998C56.7358 6.61331 56.3805 6.95109 56.1318 7.41331C55.9187 7.87553 55.8121 8.42664 55.8121 9.06664V11.9466H62.1538V17.7066H55.8121V39.4666H52.508H50.6961H49.2039Z" fill="black"/>
<defs>
<linearGradient id="paint0_linear_1177_899" x1="9.54838" y1="30.3784" x2="30.6003" y2="9.06877" gradientUnits="userSpaceOnUse">
<stop stop-color="#4678EE"/>
<stop offset="1" stop-color="#6B93F1"/>
</linearGradient>
<linearGradient id="paint1_linear_1177_899" x1="9.54838" y1="30.3784" x2="30.6003" y2="9.06877" gradientUnits="userSpaceOnUse">
<stop stop-color="#4678EE"/>
<stop offset="1" stop-color="#6B93F1"/>
</linearGradient>
<linearGradient id="paint2_linear_1177_899" x1="9.54838" y1="30.3784" x2="30.6003" y2="9.06877" gradientUnits="userSpaceOnUse">
<stop stop-color="#4678EE"/>
<stop offset="1" stop-color="#6B93F1"/>
</linearGradient>
</defs>
</svg>
